<svg xmlns="http://www.w3.org/2000/svg" xmlns:xlink="http://www.w3.org/1999/xlink" width="500" zoomAndPan="magnify" viewBox="0 0 375 374.999991" height="500" preserveAspectRatio="xMidYMid meet" version="1.0"><defs><g/></defs><g fill="#ffffff" fill-opacity="1"><g transform="translate(7.394364, 244.033609)"><g><path d="M 60.328125 -13.4375 L 5.796875 -37.390625 L 5.796875 -43.1875 L 60.328125 -70.390625 L 60.328125 -61.359375 L 16.671875 -40.75 L 60.328125 -22.46875 Z M 60.328125 -13.4375 "/></g></g></g><g fill="#ffffff" fill-opacity="1"><g transform="translate(166.244896, 244.033609)"><g><path d="M 7.75 -76.765625 C 6.90625 -76.765625 6.484375 -77.113281 6.484375 -77.8125 L 6.484375 -91.578125 C 6.484375 -92.273438 6.90625 -92.625 7.75 -92.625 L 39.25 -92.625 C 40.019531 -92.625 40.40625 -92.273438 40.40625 -91.578125 L 40.40625 -76.765625 Z M 22.8125 -60.90625 L 40.40625 -60.90625 L 40.40625 -27.328125 C 40.40625 -22.773438 39.726562 -18.929688 38.375 -15.796875 C 37.03125 -12.671875 35.316406 -10.101562 33.234375 -8.09375 C 31.148438 -6.09375 28.929688 -4.53125 26.578125 -3.40625 C 24.222656 -2.289062 22 -1.5 19.90625 -1.03125 C 17.820312 -0.570312 16.101562 -0.285156 14.75 -0.171875 C 13.40625 -0.0546875 12.734375 0 12.734375 0 L 1.28125 0 C 0.425781 0 0 -0.347656 0 -1.046875 L 0 -16.09375 C 0 -16.789062 0.425781 -17.140625 1.28125 -17.140625 L 12.734375 -17.140625 C 15.285156 -17.140625 17.234375 -17.660156 18.578125 -18.703125 C 19.929688 -19.742188 20.914062 -20.921875 21.53125 -22.234375 C 22.15625 -23.546875 22.523438 -24.722656 22.640625 -25.765625 C 22.753906 -26.804688 22.8125 -27.328125 22.8125 -27.328125 Z M 22.8125 -60.90625 "/></g></g></g><g fill="#ffffff" fill-opacity="1"><g transform="translate(301.361679, 244.033609)"><g><path d="M 5.796875 -22.46875 L 49.4375 -40.640625 L 5.796875 -61.359375 L 5.796875 -70.390625 L 60.328125 -43.1875 L 60.328125 -37.390625 L 5.796875 -13.4375 Z M 5.796875 -22.46875 "/></g></g></g></svg>